<svg xmlns="http://www.w3.org/2000/svg" id="svg" version="1.1" width="100%" height="100%" viewBox="0, 0, 400,400" preserveAspectRatio="xMidYMid">
  <g id="svgg">
    <path id="path0" d="M239.949 76.263 C 237.642 79.049,240.972 93.731,245.742 101.800 C 246.522 103.120,247.416 104.740,247.729 105.400 C 249.354 108.832,256.957 119.217,263.481 126.917 C 267.463 131.617,267.415 130.978,264.041 134.359 C 260.752 137.655,258.730 141.134,257.773 145.145 C 257.032 148.247,256.066 149.600,254.589 149.600 C 249.266 149.600,242.405 153.514,236.868 159.709 C 235.326 161.434,235.000 161.471,230.400 160.437 C 196.986 152.926,164.680 159.321,149.983 176.356 C 147.117 179.677,146.198 180.050,143.772 178.872 C 141.276 177.659,138.982 174.564,137.987 171.065 C 137.538 169.489,137.043 167.769,136.886 167.241 C 135.966 164.155,130.511 166.640,128.201 171.197 C 127.607 172.369,126.687 173.424,125.801 173.947 C 123.912 175.061,122.820 177.470,122.809 180.547 C 122.801 182.578,122.638 183.079,121.600 184.261 C 120.145 185.919,120.148 185.604,121.538 189.492 C 122.902 193.309,124.534 195.782,127.209 198.086 C 128.304 199.029,129.200 200.132,129.200 200.538 C 129.200 201.561,128.024 205.557,127.310 206.956 C 126.449 208.647,125.616 214.392,125.872 216.876 C 126.138 219.450,126.206 219.380,121.400 221.422 C 116.917 223.326,113.925 225.060,111.600 227.104 C 109.150 229.257,108.450 229.418,106.802 228.202 C 104.340 226.385,102.885 227.309,101.109 231.818 C 100.759 232.708,99.646 235.157,98.636 237.261 C 97.626 239.365,96.800 241.301,96.800 241.564 C 96.800 241.827,96.445 242.707,96.011 243.521 C 95.577 244.334,94.566 246.530,93.764 248.400 C 87.459 263.097,82.590 271.092,78.086 274.141 C 71.252 278.768,69.880 282.465,74.214 284.571 C 79.475 287.127,85.163 285.043,92.361 277.924 C 97.639 272.703,101.905 267.232,110.078 255.200 C 117.332 244.521,119.523 243.637,130.679 246.879 C 138.454 249.139,145.076 249.339,150.800 247.489 C 156.651 245.597,170.814 238.246,173.716 235.595 C 177.879 231.792,179.093 231.580,187.200 233.242 C 204.622 236.813,217.435 232.987,229.955 220.474 C 233.838 216.592,234.190 216.338,235.355 216.575 C 241.202 217.763,253.871 217.851,264.200 216.775 C 279.743 215.155,285.197 220.738,285.590 238.671 C 285.646 241.231,288.660 240.890,291.314 238.023 C 302.467 225.977,298.157 211.498,282.129 207.168 C 277.749 205.985,276.740 204.611,279.484 203.568 C 288.098 200.293,295.756 189.024,294.607 181.315 C 294.145 178.216,294.349 178.111,301.291 177.899 C 310.992 177.602,314.382 176.119,321.300 169.147 C 326.290 164.118,326.478 163.488,324.568 158.200 C 324.012 156.660,323.452 154.974,323.323 154.454 C 322.996 153.133,318.916 145.295,317.674 143.600 C 310.702 134.094,301.792 128.959,288.200 126.613 C 283.983 125.885,284.387 126.287,280.943 119.400 C 272.920 103.355,260.453 86.809,252.596 81.778 C 251.938 81.357,250.320 80.226,249.000 79.264 C 244.309 75.845,241.160 74.801,239.949 76.263" stroke="none" fill="#f7f7f7" fill-rule="evenodd"/>
    <path id="path1" d="M0.000 200.000 L 0.000 400.000 200.000 400.000 L 400.000 400.000 400.000 200.000 L 400.000 0.000 200.000 0.000 L 0.000 0.000 0.000 200.000 M244.713 76.557 C 245.751 77.084,247.680 78.302,249.000 79.264 C 250.320 80.226,251.938 81.357,252.596 81.778 C 260.453 86.809,272.920 103.355,280.943 119.400 C 284.387 126.287,283.983 125.885,288.200 126.613 C 301.792 128.959,310.702 134.094,317.674 143.600 C 318.916 145.295,322.996 153.133,323.323 154.454 C 323.452 154.974,324.012 156.660,324.568 158.200 C 326.478 163.488,326.290 164.118,321.300 169.147 C 314.382 176.119,310.992 177.602,301.291 177.899 C 294.349 178.111,294.145 178.216,294.607 181.315 C 295.756 189.024,288.098 200.293,279.484 203.568 C 276.740 204.611,277.749 205.985,282.129 207.168 C 298.157 211.498,302.467 225.977,291.314 238.023 C 288.660 240.890,285.646 241.231,285.590 238.671 C 285.197 220.738,279.743 215.155,264.200 216.775 C 253.871 217.851,241.202 217.763,235.355 216.575 C 234.190 216.338,233.838 216.592,229.955 220.474 C 217.435 232.987,204.622 236.813,187.200 233.242 C 179.093 231.580,177.879 231.792,173.716 235.595 C 170.814 238.246,156.651 245.597,150.800 247.489 C 145.076 249.339,138.454 249.139,130.679 246.879 C 119.523 243.637,117.332 244.521,110.078 255.200 C 97.354 273.930,89.708 282.207,82.640 284.900 C 77.520 286.850,70.849 284.246,71.752 280.649 C 72.144 279.086,74.775 276.384,78.086 274.141 C 82.590 271.092,87.459 263.097,93.764 248.400 C 94.566 246.530,95.577 244.334,96.011 243.521 C 96.445 242.707,96.800 241.827,96.800 241.564 C 96.800 241.301,97.626 239.365,98.636 237.261 C 99.646 235.157,100.759 232.708,101.109 231.818 C 102.885 227.309,104.340 226.385,106.802 228.202 C 108.450 229.418,109.150 229.257,111.600 227.104 C 113.925 225.060,116.917 223.326,121.400 221.422 C 126.206 219.380,126.138 219.450,125.872 216.876 C 125.616 214.392,126.449 208.647,127.310 206.956 C 128.024 205.557,129.200 201.561,129.200 200.538 C 129.200 200.132,128.304 199.029,127.209 198.086 C 124.534 195.782,122.902 193.309,121.538 189.492 C 120.148 185.604,120.145 185.919,121.600 184.261 C 122.638 183.079,122.801 182.578,122.809 180.547 C 122.820 177.470,123.912 175.061,125.801 173.947 C 126.687 173.424,127.607 172.369,128.201 171.197 C 130.511 166.640,135.966 164.155,136.886 167.241 C 137.043 167.769,137.538 169.489,137.987 171.065 C 138.982 174.564,141.276 177.659,143.772 178.872 C 146.198 180.050,147.117 179.677,149.983 176.356 C 164.680 159.321,196.986 152.926,230.400 160.437 C 235.000 161.471,235.326 161.434,236.868 159.709 C 242.405 153.514,249.266 149.600,254.589 149.600 C 256.066 149.600,257.032 148.247,257.773 145.145 C 258.730 141.134,260.752 137.655,264.041 134.359 C 267.415 130.978,267.463 131.617,263.481 126.917 C 256.957 119.217,249.354 108.832,247.729 105.400 C 247.416 104.740,246.522 103.120,245.742 101.800 C 242.102 95.642,239.520 87.253,239.451 81.363 C 239.381 75.285,240.390 74.364,244.713 76.557" stroke="none" fill="#040404" fill-rule="evenodd"/>
  </g>
</svg>
